<?xml version="1.0" encoding="UTF-8"?>
<svg id="Vrstva_1" xmlns="http://www.w3.org/2000/svg" xmlns:xlink="http://www.w3.org/1999/xlink" version="1.1" viewBox="0 0 200 200">
  <!-- Generator: Adobe Illustrator 29.3.1, SVG Export Plug-In . SVG Version: 2.1.0 Build 151)  -->
  <defs>
    <clipPath id="clippath">
      <rect x="-106.3" y="2.3" width="283.5" height="170.1" fill="none"/>
    </clipPath>
  </defs>
  <g clip-path="url(#clippath)">
    <path d="M109.7,99.3h-.1c.3.4.5.7.9,1,.4.4.8.7,1.2,1h.1c-.4-.4-.9-.7-1.3-1.1-.3-.3-.6-.6-.8-.9M108.4,96.9h-.1c.3.9.7,1.7,1.2,2.3h.1c-.5-.7-.9-1.5-1.2-2.3M107.9,94.1h-.1c0,1,.2,1.9.5,2.8h.1c-.3-.9-.4-1.8-.5-2.8M108,90.9h-.1c0,.1,0,2.8,0,2.8v.3s0,0,0,0h0c0,0,.1,0,.1,0v-.3s0-2.8,0-2.8M108.1,87.7h-.1c0,.1,0,3.2,0,3.2h.1c0-.1,0-3.2,0-3.2M108.1,84.5h-.1c0,.1,0,3.2,0,3.2h.1c0-.1,0-3.2,0-3.2M157.8,81.2l-37,20.3c-1.4.8-2.8,1.1-4.2,1.1s-3.3-.5-4.7-1.4h-.1c1.4,1,3.1,1.5,4.8,1.5s2.9-.4,4.3-1.1l37-20.3h0M108.2,81.2v.2c-.1,0-.2,3-.2,3h.1c0-.1,0-3.2,0-3.2M157.9,81.2h0s0,.1,0,.1h0s0-.1,0-.1M158.8,80.7l-.7.4h0c0,.1.8-.3.8-.3h0M159,80.6h-.1c0,0,0,.2,0,.2h.1c0,0,0-.2,0-.2M161,79.5l-1.9,1h0c0,.1,1.8-.9,1.8-.9h0M108.3,78v.2c-.1,0-.2,3-.2,3v-.2c.1,0,.2-3,.2-3M163.7,78l-2.6,1.4h0c0,.1,2.5-1.3,2.5-1.3h0M164.8,77.4l-.9.5h0c0,.1,1-.4,1-.4h0M166.8,76.3l-1.9,1h0c0,0,1.9-.9,1.9-.9h0M167.1,76.2h-.2c0,0,0,.2,0,.2l.3-.2h-.1M168,75.7l-.8.4h.1c0,0,.7-.3.7-.3h0M108.4,74.8v.2c-.1,0-.2,2.9-.2,2.9v-.2c.1,0,.2-3,.2-3M170.2,74.4l-2.1,1.2h0c0,0,2.1-1.1,2.1-1.1h0M108.5,71.6v.3c-.1,0-.2,2.8-.2,2.8v-.2c.1,0,.2-2.9.2-2.9M177.1,70.3c-.5.5-1.1.9-1.7,1.3l-5.1,2.8h0c0,0,5-2.7,5-2.7.7-.4,1.3-.8,1.8-1.3h0M108.6,68.4v.5c-.1,0-.2,2.7-.2,2.7v-.3c.1,0,.2-2.9.2-2.9M108.7,65.2v1c-.1,0-.2,2.2-.2,2.2v-.5c.1,0,.2-2.7.2-2.7M175.7,57.7h0c0,0,0,.1,0,.1.6.4,1.1.8,1.6,1.2v-.2c-.4-.4-.9-.8-1.5-1.2M117.6,23.6c-2.1,0-4.1.8-5.6,2.2-1.5,1.4-2.5,3.4-2.5,5.7l-.9,33.7v-1c.1,0,1.1-32.7,1.1-32.7,0-2.3,1-4.2,2.5-5.6,1.5-1.4,3.4-2.2,5.5-2.2s2.8.4,4.2,1.2l53.8,32.9h0c0,0,0-.1,0-.1l-53.8-32.9c-1.4-.8-2.8-1.2-4.3-1.2" fill="#b9b8b9"/>
    <path d="M105.1,102.2h-.1c.4.8.9,1.5,1.5,2.1h0s.1,0,.1,0h0c-.6-.6-1.1-1.3-1.5-2M104.2,99.8h-.1c.2.9.5,1.6.8,2.3h.1c-.4-.8-.7-1.5-.8-2.3M104.1,97h-.1c0,.4,0,.6,0,.9h0c0,.6,0,1.2.2,1.8h.1c-.1-.6-.2-1.2-.2-1.8s0-.6,0-.9M104.5,93.8h-.1c0,.1-.4,2.8-.4,2.8,0,.1,0,.2,0,.4h.1c0-.1,0-.3,0-.3l.4-2.8M105,90.7h-.1c0,.1-.4,3.1-.4,3.1h.1c0-.1.4-3.1.4-3.1M160.2,88l-44.1,17.9c-1.1.5-2.2.7-3.3.7h0c-2.3,0-4.4-.9-6-2.4h-.1c1.6,1.6,3.8,2.5,6.1,2.5s2.3-.2,3.4-.7l44.1-17.9h0M160.6,87.9h-.3c0,.1,0,.2,0,.2h.3c0-.1,0-.2,0-.2M160.9,87.7h-.2c0,0,0,.2,0,.2h.2c0,0,0-.2,0-.2M105.4,87.5v.2c-.1,0-.6,3-.6,3h.1c0-.1.4-3.1.4-3.1M162.2,87.2l-1.2.5h0c0,.1,1.2-.4,1.2-.4h0M162.4,87.1h-.1c0,0,0,.2,0,.2h.1s0-.2,0-.2M164.8,86.1l-2.3.9h0c0,.1,2.2-.8,2.2-.8h0M165.3,86h-.3c0,.1,0,.3,0,.3l.4-.2h0M167.9,84.9l-2.5,1h0c0,.1,2.4-.9,2.4-.9h0M105.9,84.3l-.2.2-.4,2.9v-.2c.1,0,.6-3,.6-3M170.1,84l-2.1.9h0c0,.1,2.2-.8,2.2-.8h0M171.5,83.4l-1.3.5h0c0,0,1.2-.4,1.2-.4h0M174,82.4h-.2c0,0-2.2,1-2.2,1h0c0,.1,2.2-.8,2.2-.8h.2c0,0,0-.2,0-.2M106.4,81.1l-.2.2-.4,2.9v-.2c.1,0,.6-2.9.6-2.9M176.5,80.7c-.7.7-1.4,1.2-2.4,1.6h0c.9-.3,1.7-.9,2.4-1.5h0M177.2,79.8c-.2.3-.4.6-.7.8h0c.2-.1.4-.4.6-.6v-.2M106.8,77.9l-.2.3-.4,2.8.2-.2.4-2.9M107.3,74.7l-.2.5-.4,2.6.2-.3.4-2.8M107.8,71.5l-.3,1-.3,2.1.2-.5.4-2.7M121,28h0c-1.9,0-3.8.7-5.2,1.9s-2.5,2.9-2.8,5.1l-4.2,29.2v1c-.1,0-1.1,6.4-1.1,6.4l.3-1,.6-4.3v-1c.1,0,4.5-30.2,4.5-30.2.3-2.1,1.3-3.8,2.8-5,1.4-1.2,3.3-1.8,5.1-1.8s3.4.5,5,1.7l49.7,38.9c.6.5,1.1,1,1.5,1.5h0c0,.1,0,.1,0,.1v-.2c-.4-.6-.9-1.1-1.5-1.5l-49.7-38.9c-1.5-1.2-3.3-1.8-5-1.8" fill="#b9b8b9"/>
    <path d="M100.6,105h-.1c.3.8.6,1.5,1.1,2.1h.1c-.4-.7-.8-1.4-1.1-2.1M100.1,102.6h-.1c0,.8.2,1.6.5,2.3h.1c-.3-.8-.4-1.5-.5-2.3M100.2,99.9h-.1c-.1.7-.2,1.3-.2,1.9s0,.5,0,.7h.1c0-.3,0-.5,0-.7,0-.6,0-1.3.2-1.9M101.1,96.8h-.2c0,.1-.7,2.7-.7,2.7,0,.1,0,.2,0,.4h.1c0-.1,0-.3,0-.3l.7-2.8M162.8,96l-51.6,14.3c-.8.2-1.6.3-2.4.3-2.4,0-4.6-1-6.2-2.6-.3-.3-.6-.6-.9-1h-.1c1.6,2.3,4.3,3.7,7.2,3.7s1.6-.1,2.5-.3l51.6-14.3h0M163,96h0s0,.1,0,.1h0s0-.1,0-.1M163.9,95.7l-.8.2h0c0,.1.8-.1.8-.1h0M164.1,95.7h0s0,.1,0,.1h0s0-.1,0-.1M166,95.1l-1.8.5h0c0,.1,1.8-.4,1.8-.4h0M166.3,95h-.2c0,0,0,.2,0,.2h.2c0,0,0-.2,0-.2M168.7,94.4l-2.2.6h0c0,.1,2.2-.5,2.2-.5h0M170.5,93.9l-1.7.5h0c0,.1,1.7-.4,1.7-.4h0M101.9,93.6l-.2.2-.8,2.9h.2c0-.1.8-3.1.8-3.1M171.9,93.5l-1.3.4h0c0,.1,1.3-.2,1.3-.2h0M175.7,91.4c-.9.9-2.1,1.6-3.5,2h-.1s0,.2,0,.2h.2c1.4-.4,2.6-1.1,3.5-2v-.2M175.9,91.2h0v.3-.2c.1,0,0-.1,0-.1M102.7,90.5l-.2.2-.8,2.9.2-.2.8-2.9M177.2,89.3c-.2.4-.4.8-.7,1.1-.2.2-.4.5-.5.7h0c.2-.1.4-.4.6-.6.2-.3.4-.6.6-.9v-.3M103.6,87.3l-.2.2-.8,2.8.2-.2.8-2.9M104.4,84.2l-.2.3-.7,2.8.2-.2.8-2.9M105.2,81l-.3.5-.7,2.6.2-.3.7-2.8M106.1,77.9l-.4,1-.6,2.1.3-.5.7-2.6M124.4,32.3h0c-1.8,0-3.5.6-4.9,1.6-1.4,1-2.5,2.6-3,4.5l-7.8,29.4v.5c-.1,0-.7,2.1-.7,2.1l-.3,1-1.7,6.3.4-1,1.1-4.2.3-1,.7-2.6v-.5c.1,0,8.1-29.9,8.1-29.9.5-1.9,1.6-3.4,3-4.4,1.4-1,3.1-1.6,4.8-1.6s4.1.8,5.7,2.4l40.1,39.6h0c0,0,5.4,5.4,5.4,5.4.3.3.6.6.8.9h0c.3.5.5.8.7,1.2v-.3c-.2-.3-.4-.6-.6-1h0c-.2-.4-.5-.7-.8-1l-5.3-5.3h0c0,0-40.1-39.7-40.1-39.7-1.7-1.6-3.8-2.4-5.8-2.4" fill="#b9b8b9"/>
    <path d="M96.1,107.8h-.1c.2.8.4,1.4.7,2.1h.1c-.3-.7-.6-1.4-.7-2.1M95.9,105.5h-.1c0,0,0,.3,0,.3,0,.6,0,1.3.2,1.9h.1c-.1-.7-.2-1.3-.2-1.9s0-.2,0-.3M165.3,105.2l-58.8,9.6c-.5,0-1,.1-1.5.1-2.5,0-4.8-1-6.4-2.7-.7-.7-1.2-1.4-1.6-2.3h-.1c.4.9,1,1.7,1.7,2.4,1.6,1.7,3.9,2.7,6.5,2.7h0c.5,0,1,0,1.5-.1l58.8-9.6h0M165.8,105.1h-.4c0,0,0,.2,0,.2h.4c0,0,0-.2,0-.2M167.3,104.9l-1.3.2h0c0,.1,1.3,0,1.3,0h0M167.7,104.8h-.2s0,.2,0,.2h.3s0-.2,0-.2M169.5,104.5l-1.7.3h0c0,.1,1.7-.2,1.7-.2h0M171.1,104.2c-.2,0-.4,0-.5.1l-1,.2h0c0,.1,1,0,1,0,.2,0,.4,0,.6-.1h0M172.3,103.9c-.3.1-.7.3-1.1.3h0c.4,0,.7,0,1-.2h0M96.4,102.9h-.2c-.3.9-.4,1.8-.4,2.6h.1c0-.9.2-1.7.5-2.6M175.5,101.6c-.8.9-1.8,1.7-3,2.2h0c1.2-.4,2.3-1.1,3.1-2.1h0M175.7,101.3h0c0,0,0,.2,0,.2h0c0,.1,0,0,0,0v-.2M97.6,99.7l-.2.2-1,2.5c0,.1,0,.2-.1.4h.2c0-.1,0-.3,0-.3l1.1-2.7M177.2,98.4c-.3,1-.8,1.9-1.4,2.8v.2c.6-.8,1.1-1.6,1.4-2.6v-.4M98.8,96.6l-.2.2-1.1,2.9.2-.2,1.1-2.9M100,93.5l-.2.3-1.1,2.8.2-.2,1.1-2.9M175.8,90.9v.2h0c0,.1,0,.2,0,.2.6.8,1,1.7,1.2,2.6v-.4c-.3-.8-.6-1.5-1.2-2.2h0c0,0-.2-.3-.2-.3M101.2,90.4l-.3.3-1.1,2.7.2-.3,1.1-2.8M102.4,87.2l-.3.5-1,2.6.3-.3,1.1-2.7M171.7,85.8v.2s3.9,4.8,3.9,4.8h0c0,0,0-.1,0-.1l-4-4.9M103.7,84.1l-.5,1-.8,2,.3-.5,1-2.6M167.6,80.8v.2s2.5,3,2.5,3h0c0,0,1.4,1.9,1.4,1.9v-.2s-1.3-1.6-1.3-1.6h0c0,0-2.6-3.3-2.6-3.3M163.6,75.7v.2s1.2,1.5,1.2,1.5h0c0,0,2.7,3.4,2.7,3.4v-.2s-2.6-3.2-2.6-3.2h0c0,0-1.3-1.7-1.3-1.7M162.9,75.1l.6.7v-.2s-.4-.5-.4-.5h-.2M159.9,71.5l2.8,3.5h.2s-2.8-3.4-2.8-3.4h-.2M159.5,70.7v.2s.4.4.4.4h.2s-.5-.6-.5-.6M157,67.9l2.3,2.9v-.2s-2.1-2.6-2.1-2.6h-.2M155.4,65.6v.3c0,0,1.5,1.8,1.5,1.8h.2s-1.7-2.1-1.7-2.1M154.1,64.3l1.1,1.4v-.3c0,0-1-1.1-1-1.1h-.2M151.3,60.7v.2c0,0,2.7,3.2,2.7,3.2h.2s-2.8-3.4-2.8-3.4h0M148.3,57.1l2.8,3.4h0s0-.2,0-.2l-2.6-3.1h-.2M147.2,55.5l.2.4.8,1h.2c0,0-1.2-1.4-1.2-1.4M145.4,53.5l1.7,2.1-.2-.4-1.3-1.6h-.2M143.1,50.5l.3.5,1.8,2.3h.2c0,.1-2.4-2.8-2.4-2.8M142.5,49.9l.5.7-.3-.5c0,0-.2-.1-.3-.2M139.6,46.4h0c0,0,2.6,3.3,2.6,3.3,0,0,.2,0,.3.1l-2.6-3.2c-.1,0-.2-.2-.3-.2M139,45.5l.4.6h.2c0,.1-.6-.6-.6-.6M136.7,42.8l2.2,2.7-.5-.8v-.2c-.1,0-1-1.1-1-1.1h0c-.2-.2-.4-.4-.6-.6,0,0,0,0,0,0M127.7,36.5h0c-1.6,0-3.3.5-4.7,1.4-1.4.9-2.5,2.3-3.2,4l-11.3,29.3v.3c-.1,0-1.1,2.6-1.1,2.6l-.2.5-.8,2.1-.4,1-2.4,6.2.5-1,1.6-4.1.4-1,1-2.6.2-.5,1.1-2.8v-.3c.1,0,11.6-29.7,11.6-29.7.7-1.7,1.8-3,3.2-3.9,1.4-.9,3-1.4,4.6-1.4,2.4,0,4.8,1,6.5,3.1l2.1,2.6c.1.1.3.2.4.4l-2.5-3c-1.7-2.1-4.2-3.2-6.6-3.2" fill="#b9b8b9"/>
    <path d="M168.7,115.3h-.7s0,.2,0,.2h.7s0-.2,0-.2ZM169.2,115.2h-.2s-.2,0-.2,0h0c0,.1.2.1.2.1h.2s0-.1,0-.1M170.4,115.1c-.4,0-.7.1-1.1.2h0c.4,0,.7,0,1.1,0h0M171.8,114.6c-.4.2-.8.3-1.3.4h0c.5,0,.9-.1,1.3-.3h0M172.7,114.2c-.3.2-.6.3-.8.4h0c.3,0,.5-.1.8-.3h0M92.2,112.6h-.1c.5,1.5,1.2,2.7,2.2,3.8,1.7,1.8,4.1,2.9,6.8,2.9s.4,0,.6,0l66.1-3.8h0c0-.1-66.1,3.7-66.1,3.7-.2,0-.4,0-.6,0-2.7,0-5.1-1.1-6.8-2.8-1-1-1.8-2.3-2.2-3.7M175.2,112c-.1.1-.2.3-.4.4-.6.6-1.2,1.2-2,1.6h0c.8-.3,1.5-.9,2.1-1.6.1-.1.2-.3.3-.4h0M175.7,111.3c-.1.2-.3.4-.4.6h0c.1,0,.2-.2.4-.4v-.2M91.7,110.5h-.1c0,.7.2,1.4.4,2h.1c-.2-.7-.3-1.3-.4-2M91.8,108.3h-.1c0,.5,0,1,0,1.4s0,.5,0,.7h.1c0-.3,0-.5,0-.7,0-.5,0-.9.1-1.4M92.6,105.8l-.2.2c-.3.8-.6,1.5-.7,2.3h.1c.1-.9.4-1.7.7-2.5M94.2,102.7l-.2.2-1.3,2.5c0,.1-.1.2-.2.4l.2-.2h0c0-.1,1.4-2.8,1.4-2.8M175.8,101.9v.2c.9,1.4,1.3,3,1.3,4.5s-.4,3.2-1.3,4.5v.2c.9-1.4,1.4-3,1.4-4.7s-.4-3.2-1.4-4.7M95.7,99.6l-.3.3-1.4,2.8.2-.2,1.4-2.8M97.3,96.5l-.3.4-1.4,2.7.3-.3,1.4-2.8M172.1,96.3v.2s3.3,5.1,3.3,5.1h0c0,.1,0,.2,0,.2h0c0,0,0-.1,0-.1h0c0-.1,0-.2,0-.2l-3.4-5.2M98.9,93.4l-.4.5-1.3,2.5.3-.3,1.4-2.7M168.5,90.6v.3s2,3,2,3h0c0,.1,1.5,2.4,1.5,2.4v-.2s-1.4-2.1-1.4-2.1h0c0-.1-2.1-3.3-2.1-3.3M100.5,90.3l-.7,1.1-1,2,.4-.5,1.3-2.5M164.8,85v.3s.5.7.5.7h0c0,.1,3,4.7,3,4.7v-.3s-2.9-4.4-2.9-4.4h0c0-.1-.6-1-.6-1M161.1,79.3v.3c0,0,3.6,5.4,3.6,5.4v-.3s-3.5-5.2-3.5-5.2h0c0-.1,0-.2,0-.2M158.5,75.3h-.1s2.6,4,2.6,4v-.3c0,0-2.5-3.7-2.5-3.7M157.4,73.7v.4c0,0,.9,1.2.9,1.2h.1s-1-1.6-1-1.6M156,71.5h-.1s1.4,2.2,1.4,2.2v-.4c0,0-1.3-1.9-1.3-1.9M153.7,68v.4c.1,0,2.1,2.9,2.1,2.9h.1s-2.2-3.4-2.2-3.4M153.5,67.7h-.1s.2.4.2.4v-.4M151.1,64h-.1s2.4,3.7,2.4,3.7h.1s-2.4-3.7-2.4-3.7M150,62.4l.3.6.5.8h.1s-.9-1.4-.9-1.4M148.5,60.2l1.5,2.2-.3-.6-1-1.6h-.2M146.4,56.7l.6,1.1,1.5,2.2h.1s-2.2-3.4-2.2-3.4M146.1,56.5l.2.3v-.3c-.1,0-.2,0-.2,0M143.7,52.9l2.3,3.5h0s-.4-.7-.4-.7l-1.8-2.7h-.2M141.4,49.4l2.2,3.3h.2s-2.2-3.3-2.2-3.3h-.2M139.3,46.2l2,3.1h.2c0,0-1.9-2.8-1.9-2.8h0c0,0-.3-.2-.3-.2M131.1,40.6h0c-3.1,0-6.2,1.6-7.8,4.7l-14.9,29.1v.2c-.1,0-1.5,2.8-1.5,2.8l-.2.3-1.3,2.6-.3.5-1,2.1-.5,1-3.2,6.2.7-1.1,2.1-4,.5-1,1.3-2.6.3-.5,1.4-2.8.2-.3,1.5-2.8v-.2c.1,0,15.1-29.4,15.1-29.4,1.6-3.1,4.6-4.7,7.7-4.7s4,.7,5.6,2c0,0,0,0,0,0,.2.2.4.4.6.6,0,0,0,0,0,0,.3.3.6.7.9,1.1v.2c.1,0,.7.8.7.8l.3.4h.2c0,.1-.4-.5-.4-.5l-.5-.8c-.5-.8-1.1-1.4-1.7-1.9-.1-.1-.3-.2-.4-.4-1.6-1.2-3.4-1.7-5.2-1.7" fill="#b9b8b9"/>
    <path d="M170.1,125.9h-.2s0,.2,0,.2h.2s0-.2,0-.2ZM170.5,125.7c-.1,0-.2,0-.3,0h0c.1,0,.2,0,.3,0h0M171.2,125.5c-.2,0-.4.2-.6.2h0c.2,0,.4,0,.6-.1h0M172.4,124.9c-.3.2-.7.4-1,.5h0c.4,0,.7-.2,1-.4h0M173.1,124.4c-.2.2-.4.3-.7.5h0c.2,0,.4-.2.6-.3h0M175,122.4c-.3.4-.5.7-.9,1-.3.3-.6.6-.9.8h0c.4-.1.7-.4,1-.8.3-.3.6-.6.8-1h0M175.7,121.3c-.2.3-.4.7-.6,1h0c.2-.2.4-.4.5-.8v-.3M87.5,115.2h-.1c.3,2,1.2,3.8,2.5,5.2,1.7,1.8,4.1,3.1,7,3.2l70.4,2.6c.1,0,.2,0,.4,0,.7,0,1.4,0,2.1-.2h0c-.7,0-1.4.1-2.1.1s-.2,0-.4,0l-70.4-2.6c-2.8-.1-5.2-1.3-6.9-3.1-1.3-1.4-2.2-3.2-2.5-5.2M87.4,113.2h-.1c0,.2,0,.3,0,.4,0,.5,0,1,.1,1.5h.1c0-.5-.1-1-.1-1.5s0-.3,0-.4M175.8,113v.3c.6,1.3.9,2.6.9,3.9s-.3,2.7-.9,3.9v.3c.6-1.3,1-2.7,1-4.2h0c0-1.4-.3-2.8-1-4.2M87.8,111.1h-.2c-.2.7-.3,1.4-.3,2h.1c0-.7.1-1.4.3-2M88.8,108.7l-.2.2c-.4.7-.7,1.4-.9,2.2h.2c.2-.9.5-1.6,1-2.3M172.6,106.7v.3s2.6,5,2.6,5h0c0,.1.4.9.4.9h0c0,.1,0-.2,0-.2l-.4-.7h0c0-.1-2.7-5.3-2.7-5.3M90.7,105.6l-.3.3-1.5,2.4c0,.1-.1.2-.2.3l.3-.2h0c0,0,1.7-2.8,1.7-2.8M92.7,102.6l-.4.4-1.7,2.6.3-.3,1.7-2.7M169.3,100.5v.3s1.8,3.4,1.8,3.4h0c0,.1,1.3,2.5,1.3,2.5v-.3s-1.1-2.2-1.1-2.2h0c0-.1-2-3.8-2-3.8M94.6,99.5l-.5.6-1.6,2.4.4-.4,1.7-2.6M96.6,96.4l-.9,1.1-1.2,1.9.5-.5,1.6-2.4M166,94.2v.3s.3.5.3.5h0c0,.1,2.8,5.5,2.8,5.5v-.3s-2.7-5.1-2.7-5.1h0c0-.1-.4-.9-.4-.9M162.7,88v.4c0,0,3.2,5.9,3.2,5.9v-.3s-3.2-5.9-3.2-5.9M159.5,81.7v.5c.1,0,2.7,5,2.7,5h0c0,.1.4.8.4.8v-.4c0,0-.3-.3-.3-.3h0c0-.1-2.8-5.5-2.8-5.5M156.4,76h0s0,.2,0,.2l2.4,4.5h0c0,.1.5,1.1.5,1.1v-.5c-.1,0-.4-.5-.4-.5h0c0-.1-2.5-4.8-2.5-4.8M156.2,75.5v.4c.1,0,.2,0,.2,0l-.2-.4M154.3,71.9h-.1s1.9,3.6,1.9,3.6l-.2-.7-1.5-2.9M152.9,69.2l.5,1.3.7,1.3h.1s-1.3-2.6-1.3-2.6M152.2,67.9h-.1s.7,1.4.7,1.4l-.5-1.3h0M150.2,64h-.1s2,3.8,2,3.8h.1s-2-3.8-2-3.8M148,60.2l1.9,3.7h.1s-1.9-3.7-1.9-3.7h-.1M146.1,56.5v.3c.1,0,1.9,3.3,1.9,3.3h.1s-1.2-2.2-1.2-2.2l-.6-1.1v-.2c0,0-.2,0-.2,0M144.3,53.1l1.4,2.6.4.7h.1s-1.7-3.3-1.7-3.3h-.2M142.7,50.1l.3.5,1.2,2.4h.2c0,0-1-1.9-1-1.9l-.3-.5-.2-.3h-.2M134.4,44.7h0c-2.9,0-5.9,1.4-7.7,4.2l-18.4,28.9v.2c-.1,0-1.9,2.8-1.9,2.8l-.2.2-1.7,2.7-.2.3-1.6,2.5-.3.5-1.3,2-.7,1.1-3.9,6.1.9-1.1,2.5-3.9.7-1.1,1.6-2.6.3-.5,1.7-2.7.2-.3,1.8-2.8.2-.2,1.8-2.9v-.2c.1,0,18.7-29.1,18.7-29.1,1.8-2.8,4.7-4.2,7.6-4.2s3.4.5,4.9,1.4l.3.2c.1,0,.2.2.3.2,1,.8,1.9,1.8,2.6,3.1v.2c.1,0,.3.1.3.1l-.2-.4c-.8-1.4-1.8-2.6-3-3.4h-.2c0-.1-.2-.3-.2-.3-1.4-.9-3.1-1.3-4.7-1.3" fill="#b9b8b9"/>
    <path d="M171.7,135.9h-.1c0,0,0,.2,0,.2h.1c0,0,0-.2,0-.2ZM172.1,135.6c0,0-.2.1-.3.2h0c0,0,.2,0,.3,0h0M172.9,135c-.2.2-.5.4-.7.5h0c.2,0,.5-.2.7-.4h0M173.5,134.5c-.2.2-.3.3-.5.5h0c.2,0,.3-.2.5-.3v-.2M174.9,132.7c-.4.6-.8,1.1-1.2,1.6h0c0,0,0,.2,0,.2h.1c.4-.6.9-1.1,1.2-1.7h0M175.7,131.2c-.2.5-.4.9-.7,1.4v.2c.3-.4.5-.8.7-1.2v-.3M175.8,124v.3c.4,1.1.6,2.2.6,3.3s-.2,2.2-.6,3.3v.3c.5-1.1.7-2.4.7-3.6h0c0-1.2-.2-2.4-.7-3.6M83,117.8h-.1c0,2.5,1,4.8,2.5,6.6,1.6,1.9,3.9,3.3,6.7,3.6l73.6,9.2c.4,0,.8,0,1.2,0,1.6,0,3.2-.4,4.5-1.1h0c-1.3.6-2.8,1-4.5,1s-.8,0-1.2,0l-73.6-9.2c-2.8-.3-5.1-1.7-6.7-3.6-1.5-1.8-2.4-4.1-2.5-6.5M173,117.2v.3s2.1,4.9,2.1,4.9h0c0,.1.6,1.5.6,1.5h0c0,.1,0-.2,0-.2l-.5-1.3h0c0-.1-2.1-5.2-2.1-5.2M83.2,115.9h-.1c0,.6-.1,1.2-.1,1.7v.2s.1,0,.1,0h0c0-.7,0-1.2.1-1.8M83.7,113.9h-.2c-.2.7-.4,1.3-.5,1.9h.1c.1-.7.3-1.3.5-1.9M85,111.6l-.3.2c-.4.6-.8,1.3-1,2h.2c.3-.8.7-1.5,1.1-2.2M170.1,110.3v.4s1.7,3.9,1.7,3.9h0c0,.1,1,2.6,1,2.6v-.3s-.9-2.2-.9-2.2h0c0-.1-1.8-4.4-1.8-4.4M87.3,108.6l-.4.4-1.7,2.2c0,.1-.2.2-.3.3l.3-.3h0s2-2.7,2-2.7M89.6,105.6l-.6.6-1.8,2.4.4-.4h0l2-2.6M167.2,103.5v.5c0,0,.4.9.4.9h0c0,.1,2.3,5.5,2.3,5.5v-.4s-2.1-5.1-2.1-5.1h0c0-.1-.6-1.4-.6-1.4M91.9,102.5l-1,1.2-1.4,1.8.6-.6,1.8-2.4M164.4,96.6v.6c.1,0,2.7,6.3,2.7,6.3v-.5c0,0-2.7-6.4-2.7-6.4M161.5,89.8l.2.8,2.2,5.2h0c0,.1.3.9.3.9v-.6c-.1,0-.2-.3-.2-.3h0c0-.1-2.5-6-2.5-6M158.6,82.9l.5,1.5,1.4,3.5h0c0,.1.8,2,.8,2l-.2-.8-.5-1.1h0c0-.1-2-5-2-5M155.8,76.2h-.1c0,0,2.1,5,2.1,5h0c0,.1.7,1.7.7,1.7l-.5-1.5v-.2c0,0-.1-.1-.1-.1l-2.1-5M154.1,72h-.1s1.7,4.2,1.7,4.2h.1s-1.7-4.2-1.7-4.2M152.3,67.9h-.1s0,.1,0,.1l.5,1.3,1.1,2.6h.1s-.6-1.4-.6-1.4l-.5-1.3-.6-1.4M150.7,64h-.1s1.6,3.8,1.6,3.8h.1s-1.6-3.8-1.6-3.8M149,60.3l.7,1.6.3.6.6,1.4h.1s-.3-.8-.3-.8l-.3-.6-.9-2.1h-.1M147.6,56.9l1.4,3.3h.1s-1.4-3.2-1.4-3.2h-.1M146.4,54c0,.2.2.4.3.6l.2.6.2.4.5,1.1h.1s-.3-.8-.3-.8l-.2-.4-.4-1c0-.1-.1-.3-.2-.4h-.2M137.8,48.6c-2.8,0-5.6,1.2-7.6,3.8l-22,28.7v.2c-.1,0-2.3,2.8-2.3,2.8v.2c-.1,0-2.3,2.8-2.3,2.8l-.2.2-2.1,2.7-.3.3-1.9,2.5-.4.5-1.5,1.9-.9,1.1-4.7,6.1,1-1.2,2.9-3.7.9-1.1,1.9-2.5.4-.5,2.1-2.7.3-.3,2.1-2.8.2-.2,2.2-2.8.2-.2,2.2-2.9v-.2c.1,0,22.2-28.8,22.2-28.8,1.9-2.5,4.7-3.7,7.5-3.7s2.5.2,3.6.7h.2c.3.2.5.3.8.5,0,0,.2.1.3.2h.2c1.4,1,2.5,2.2,3.4,3.8h.2c-.9-1.6-2.2-3-3.7-3.9h-.2c0-.1,0-.2,0-.2,0,0-.2,0-.3-.1-.2-.1-.5-.2-.7-.3h-.2c-1.1-.5-2.3-.7-3.5-.7" fill="#b9b8b9"/>
    <path d="M172.9,145.6h0c0,0,0,.2,0,.2h0c0,0,0-.2,0-.2ZM173.4,145.1v.2c-.1,0-.4.2-.4.2v.2c.2-.1.3-.3.4-.4h0M173.9,144.5c-.1.2-.3.3-.4.5h0c.1,0,.3-.1.4-.3v-.2M174.9,143c-.3.5-.6.9-.9,1.3v.2c.4-.4.7-.9.9-1.4v-.2M175.7,141.2c-.2.6-.4,1.1-.7,1.7v.2c.3-.5.5-.9.7-1.4v-.4M175.8,135.1v.4c.2.9.4,1.8.4,2.7s-.1,1.8-.4,2.7v.4c.3-1,.5-2,.5-3.1s-.2-2.1-.5-3.1M173.4,127.6v.4s1.6,4.7,1.6,4.7h0c0,.1.7,2.2.7,2.2h0c0,.1,0-.2,0-.2l-.6-1.9v-.2c0,0-1.7-5-1.7-5M78.6,120.3h-.1c0,.4,0,.8,0,1.2,0,2.5.8,4.9,2.4,6.9,1.5,2,3.8,3.4,6.5,4l76.7,15.7c.7.1,1.4.2,2.1.2,2.5,0,4.8-.9,6.5-2.4h0c-1.7,1.4-4,2.3-6.5,2.3s-1.4,0-2.1-.2l-76.7-15.7c-2.8-.6-5-2-6.5-4-1.5-1.9-2.3-4.4-2.3-6.8s0-.8,0-1.2M170.9,120.2v.5s1.4,4.2,1.4,4.2h0c0,.1.9,2.7.9,2.7v-.4s-.8-2.2-.8-2.2h0c0-.1-1.5-4.8-1.5-4.8M79,118.5h-.2c-.2.7-.3,1.2-.3,1.8h.1c0-.6.2-1.2.3-1.8M79.8,116.6h-.2c-.3.7-.5,1.2-.6,1.8h.2c.2-.7.4-1.2.7-1.8M81.1,114.5l-.4.3c-.4.6-.8,1.1-1.1,1.7h.2c.3-.8.8-1.4,1.3-2M168.5,112.7v.6c0,0,.7,1.9.7,1.9h0c0,.1,1.6,4.9,1.6,4.9v-.5s-1.5-4.3-1.5-4.3h0c0-.1-.8-2.6-.8-2.6M83.8,111.5l-.7.6-1.8,2c0,.1-.2.2-.3.3l.5-.4,2.3-2.5M86.5,108.5l-1.2,1.2-1.5,1.7.7-.6,2.1-2.3M166,105.3l.2.9,2.2,6.6v-.6c0,0-2.3-6.8-2.3-6.8M163.6,97.8l.4,1.7,1.8,5.6h0c0,.1,0,.2,0,.2l-.2-.9-2.2-6.6M156.4,76h-.1s1.7,5.2,1.7,5.2h0c0,.1,0,.3,0,.3l.5,1.5,1.7,5h0c0,.1,2.6,8,2.6,8h0c0,.1.6,1.8.6,1.8l-.4-1.7h0c0,0,0-.2,0-.2l-2.6-7.9h0c0-.1-1.2-3.7-1.2-3.7l-.5-1.5-.6-1.7h0c0-.1-1.6-5-1.6-5v-.2M154.9,71.7h-.1s1,3.1,1,3.1l.2.7v.4c.1,0,.2,0,.2,0v-.4c-.1,0-1.4-3.8-1.4-3.8M153.6,67.7h-.1s.1.4.1.4l1.2,3.5h.1s-1-3.2-1-3.2v-.4c-.1,0-.3-.3-.3-.3M152.3,64l1.2,3.6h.1s-1.2-3.6-1.2-3.6h-.1M151.2,60.7l1,3.2h.1s-1-2.9-1-2.9v-.2c0,0-.2,0-.2,0M150.1,58c.3.5.5,1,.7,1.6l.2.7v.2c0,0,.2,0,.2,0l-.3-1c-.2-.5-.4-1-.6-1.4h-.2M141.2,52.5c-2.7,0-5.4,1.1-7.5,3.4l-25.5,28.4h-.1c0,.1-2.6,3-2.6,3v.2c-.1,0-2.7,2.8-2.7,2.8l-.2.2-2.5,2.8-.2.3-2.4,2.7-.3.4-2.2,2.5-.5.5-1.7,1.8-1,1.2-5.4,6,1.2-1.2,3.2-3.6,1-1.2,2.2-2.5.5-.5,2.4-2.7.3-.4,2.5-2.8.2-.3,2.5-2.8.2-.2,2.6-2.8v-.2c.1,0,2.7-2.9,2.7-2.9h.1c0-.1,25.6-28.7,25.6-28.7,2-2.3,4.7-3.3,7.4-3.3h0c.9,0,1.7.1,2.5.3h.2c.1,0,.3.1.4.2h.2c.3.2.6.3.9.4h.2c.3.2.5.4.8.5h.2c.1.2.3.3.4.4,1.2.8,2.3,2,3,3.4h.2c-.8-1.4-1.9-2.6-3.2-3.5-.2-.1-.4-.2-.6-.4h-.2c-.3-.3-.6-.4-.9-.5h-.2c-.3-.2-.5-.3-.8-.4h-.2c-.1,0-.3-.1-.4-.2h-.2c-.8-.2-1.6-.3-2.4-.3" fill="#b9b8b9"/>
    <path d="M174,154.9v.2c-.1,0-.1.2-.1.2v-.2c.1,0,.1-.2.1-.2ZM174.3,154.4c0,.1-.2.2-.3.4v.2c.1-.1.2-.2.3-.3v-.2M175,153.2c-.2.3-.4.7-.6,1v.2c.2-.3.4-.7.6-1v-.2M175.7,151.2c-.2.6-.4,1.3-.6,1.9v.2c.3-.5.5-1.1.6-1.6v-.5M175.8,146.1v.6c.1.7.2,1.3.2,2s0,1.3-.2,2v.6c.2-.8.3-1.7.3-2.5s0-1.7-.3-2.6M173.8,138v.6s1.1,4.4,1.1,4.4v.2s.7,2.8.7,2.8v.2s0-.5,0-.5l-.7-2.6v-.2s-1.3-4.8-1.3-4.8M171.7,130v.7c0,0,1.2,4.3,1.2,4.3h0c0,.1.7,3,.7,3v-.6s-.6-2.4-.6-2.4h0c0-.1-1.3-5.1-1.3-5.1M74.4,122.8h-.1c-.2.9-.3,1.8-.3,2.7,0,2.5.8,4.9,2.3,7,1.5,2,3.6,3.6,6.4,4.4l79.9,22.2c1,.3,2,.4,2.9.4,3.3,0,6.3-1.6,8.3-4v-.2c-.3.3-.5.6-.8.9-1.9,1.9-4.6,3.1-7.5,3.1s-1.9-.1-2.9-.4l-79.9-22.2c-2.7-.8-4.9-2.3-6.3-4.3-1.5-2-2.2-4.4-2.2-6.9s.1-1.8.3-2.7M169.7,122v1c.1,0,.8,2.7.8,2.7h0c0,.1,1.1,4.3,1.1,4.3v-.7c0,0-.9-3.5-.9-3.5h0c0-.1-.9-3.8-.9-3.8M75,121h-.2c-.2.6-.4,1.1-.5,1.7h.1c.1-.6.3-1.1.5-1.7M75.9,119.3l-.2.2c-.3.5-.5,1-.7,1.5h.2c.2-.6.5-1.1.8-1.6M77.3,117.4l-.5.4c-.4.4-.7.9-1,1.4l.3-.2c.4-.6.8-1.1,1.3-1.6M80.4,114.5l-1.5,1.3-1.3,1.3c-.1.1-.2.2-.3.3l.8-.6,2.3-2.3M167.6,113.9l.4,1.9,1.6,6.2v-1c-.1,0-1.5-5.5-1.5-5.5h0c0-.1-.4-1.5-.4-1.5M157.9,75.5h-.1s1.3,5.1,1.3,5.1h0c0,.1.1.7.1.7v.5c.1,0,1.6,6,1.6,6h0c0,.1.3,1.3.3,1.3l.2.8,1.6,6.2h0c0,.1,0,.2,0,.2l.4,1.7,1.9,7.3h0c0,.1,2.2,8.8,2.2,8.8l-.4-1.9-1.7-6.7h0c0-.1-1.4-5.8-1.4-5.8l-.4-1.7-.4-1.8h0c0-.1-1.4-5.5-1.4-5.5l-.2-.8-.5-2h0c0-.1-1.4-5.6-1.4-5.6v-.5c-.1,0-.4-1.1-.4-1.1h0c0-.1-1.3-5.1-1.3-5.1M156.8,71.4h-.1s.5,2,.5,2v.4c0,0,.5,1.7.5,1.7h.1s-.3-1.4-.3-1.4v-.4c0,0-.7-2.3-.7-2.3M155.8,67.7l.9,3.6h.1s-.9-3.6-.9-3.6h-.1M155,64.5h0s.2.9.2.9v.3c0,0,.6,1.9.6,1.9h.1s-.4-1.7-.4-1.7v-.3c0,0-.3-1.1-.3-1.1h-.1M153.9,61.9c.4.8.8,1.6,1,2.5h.1c-.2-.8-.5-1.6-.9-2.3h-.2M144.6,56.3c-2.6,0-5.3,1-7.4,3l-29.1,28.2h-.1c0,.1-2.9,3-2.9,3h-.1c0,.1-2.9,3-2.9,3l-.2.2-2.9,2.8-.2.2-2.8,2.7-.3.3-2.7,2.6-.4.4-2.5,2.4-.6.6-1.8,1.8-1.2,1.2-6.1,6,1.5-1.3,3.5-3.4,1.2-1.2,2.5-2.4.6-.6,2.7-2.6.4-.4,2.8-2.7.3-.3,2.9-2.8.2-.2,2.9-2.8.2-.2,2.9-2.8h.1c0-.1,3-3,3-3h.1c0-.1,29.2-28.4,29.2-28.4,2.1-2,4.7-3,7.3-3s1,0,1.5.1h0s.1,0,.1,0c.5,0,.9.2,1.3.3h.1c.2,0,.4.2.5.2h.2c.6.3,1.1.6,1.6.9h.2c.2.3.4.4.7.6,1.1.8,2.1,1.9,2.8,3.1h.2c-.8-1.2-1.8-2.4-2.9-3.2-.3-.2-.6-.4-.8-.6h-.2c-.5-.4-1.1-.7-1.7-.9h-.2c-.1-.1-.3-.2-.4-.2h-.1c-.4-.2-.9-.3-1.3-.3h-.1s0,0,0,0c-.5,0-1,0-1.4,0" fill="#b9b8b9"/>
    <path d="M174.7,164.2v.2c0,0,0,.2,0,.2v-.2c0,0,0-.2,0-.2ZM175.1,163.4c0,.2-.2.4-.3.6v.3c.1-.2.2-.4.3-.6v-.2M175.7,161.2c-.1.7-.3,1.3-.5,2v.2c.2-.5.4-1.1.5-1.6v-.6M175.8,157.1v.9c0,.4,0,.8,0,1.1s0,.8,0,1.1v.9c.1-.6.2-1.3.2-2h0c0-.7,0-1.3-.2-2M174.2,148.5v.8s.8,3.9.8,3.9v.2s.7,3.5.7,3.5v.2s0-.7,0-.7l-.6-3.2v-.2s-.9-4.6-.9-4.6M172.6,139.8v1.2c0,0,.9,4.1.9,4.1h0c0,.1.6,3.4.6,3.4v-.8s-.5-2.6-.5-2.6h0c0-.1-1-5.3-1-5.3M170.9,131.2l.3,2.2.5,2.5h0c0,.1.7,4,.7,4v-1.2c0,0-.6-2.8-.6-2.8h0c0-.1-.9-4.7-.9-4.7M70.3,125.1h-.2c-.5,1.4-.7,2.9-.7,4.3,0,2.5.7,5,2.2,7.1,1.4,2.1,3.5,3.8,6.2,4.7l83.1,28.7c1.3.4,2.5.6,3.8.6,4.1,0,7.9-2.3,9.9-5.8v-.2c-.5,1-1.2,1.8-2,2.6-2.1,2-4.9,3.3-7.9,3.3s-2.5-.2-3.7-.6l-83.1-28.7c-2.7-.9-4.8-2.6-6.2-4.7-1.4-2.1-2.2-4.5-2.2-7s.2-2.9.8-4.3M71,123.5h-.2c-.2.6-.5,1.1-.6,1.6h.2c.2-.6.4-1.1.7-1.6M72.1,121.9l-.3.2c-.3.4-.6.8-.8,1.3h.2c.3-.6.6-1,.9-1.5M73.6,120.3l-.8.6c-.3.3-.5.6-.8.9l.3-.2c.4-.4.8-.9,1.2-1.3M160.3,75.1h-.1s.8,4,.8,4v.3c0,0,0,.1,0,.1h0c0,.1,1.4,7.6,1.4,7.6h0c0,.1,0,.5,0,.5v.4c0,0,1.5,7.7,1.5,7.7h0c0,.1,0,.4,0,.4v.6c.1,0,1.6,7.7,1.6,7.7l.2.9,1.3,6.7.4,1.9.3,1.4h0c0,.1,2,10.6,2,10.6h0c0,.1,1,5.3,1,5.3l-.3-2.2-.6-3h0c0-.1-1.9-10.2-1.9-10.2l-.4-1.9-1.5-7.7-.2-.9h0c0,0,0-.2,0-.2l-1.5-7.9v-.6c-.1,0-.3-.9-.3-.9h0c0-.1-1.4-7.4-1.4-7.4v-.4c0,0-.2-.8-.2-.8h0c0-.1-1.4-7.5-1.4-7.5v-.3c0,0-.9-4.3-.9-4.3M159.5,71.4l.7,3.5h.1s-.7-3.5-.7-3.5h-.1M158.8,68.4c.1.4.2.7.3,1.1l.2,1v.2s.2.5.2.5h.1s0-.4,0-.4v-.2s-.3-1.2-.3-1.2c0-.4-.2-.7-.3-1.1h-.1M157.7,65.8c.4.7.8,1.5,1.1,2.4h.1c-.2-.8-.6-1.5-1-2.3h-.2M148,60.1h0c-2.5,0-5.1.9-7.3,2.7l-32.6,27.9h-.1c0,.1-3.3,2.9-3.3,2.9h-.1c0,.1-3.3,2.9-3.3,2.9h-.2c0,.1-3.3,2.9-3.3,2.9l-.2.2-3.2,2.7-.2.2-3.1,2.7-.3.3-3,2.6h0s-.4.4-.4.4l-2.7,2.3-.7.6-2,1.7-1.5,1.3-6.5,5.5c-.1,0-.2.2-.3.3l1.6-1.3,3.8-3.2,1.5-1.3,2.8-2.4.7-.6,3-2.6.4-.4,3.1-2.7.3-.3,3.2-2.7.2-.2,3.3-2.8.2-.2,3.3-2.8h.2c0-.1,3.3-3,3.3-3h.1c0-.1,3.3-3,3.3-3h.1c0-.1,32.7-28.1,32.7-28.1,2.2-1.9,4.7-2.7,7.3-2.7h.2c.1,0,.2,0,.3,0h.1c.1,0,.3,0,.4,0h.1c.7,0,1.4.2,2,.4h.1s0,0,0,0c.9.3,1.7.7,2.5,1.2h.2c.3.3.6.5.9.8,1,.8,1.9,1.8,2.6,2.9h.2c-.7-1.1-1.6-2.1-2.7-3-.4-.3-.7-.5-1.1-.8h-.2c-.8-.6-1.6-1-2.5-1.2h-.1s0,0,0,0c-.6-.2-1.3-.3-2-.4h-.1c-.1,0-.3,0-.4,0h-.1c0,0-.2,0-.3,0h-.1" fill="#b9b8b9"/>
    <path d="M175.8,168.2v2.9c0-.5,0-1,0-1.5s0-1,0-1.5M67.3,125.8l-.3.2c-.3.4-.6.9-.8,1.3h.2c.3-.6.5-1,.8-1.5M68.5,124.4l-.4.3c-.3.3-.6.7-.8,1l.3-.2c.3-.4.6-.8,1-1.2M163.4,75.1v.4c0,0,0,.2,0,.2l.3,2.2h0c0,.1.9,6.8.9,6.8v.3s.2,1.1.2,1.1h0c0,.1,1,7.8,1,7.8v.3s.2.9.2.9h0c0,.1,1,7.9,1,7.9v.5c0,0,.2,1.4.2,1.4h0c0,.1.9,7.2.9,7.2v.6c0,0,.4,2.5.4,2.5h0c0,.1.7,5.7.7,5.7v1c.1,0,.7,3.9.7,3.9h0c0,.1.4,3.2.4,3.2l.3,2.2.6,4.8h0c0,.1,1.3,9.7,1.3,9.7h0c0,.1.5,4,.5,4l-.2-2.5-.2-1.5h0c0-.1-1.3-9.7-1.3-9.7h0c0-.1-.3-2.7-.3-2.7l-.3-2.2-.7-5.3h0c0-.1-.4-3-.4-3v-1c-.1,0-1-6.6-1-6.6h0c0-.1-.3-2-.3-2v-.6c0,0-1.1-7.8-1.1-7.8h0c0-.1-.1-1-.1-1v-.5c0,0-1.2-8.3-1.2-8.3h0c0-.1,0-.6,0-.6v-.3s-1.1-8-1.1-8h0c0-.1-.1-1-.1-1v-.3s-1-6.9-1-6.9h0c0-.1-.3-2.1-.3-2.1v-.2s-.1-.6-.1-.6h-.1M162.7,72.2c.2.7.4,1.5.5,2.3v.6c0,0,.2,0,.2,0v-.6c-.2-.8-.3-1.5-.6-2.2h-.1M161.6,69.7c.4.7.8,1.5,1.1,2.3h.1c-.3-.7-.6-1.5-1-2.2l-.2-.2M151.3,63.8c-.1,0-.2,0-.3,0h-.1s-.2,0-.2,0h-.1c-.1,0-.3,0-.4,0h-.1c-2,.2-4.1,1-5.9,2.4l-36.2,27.6h-.1c0,0-3.7,2.9-3.7,2.9h-.1c0,.1-3.7,2.9-3.7,2.9h-.2c0,.1-3.6,2.9-3.6,2.9h-.2c0,.1-3.6,2.9-3.6,2.9l-.2.2-3.6,2.7-.3.2-3.5,2.7-.3.3-3.3,2.5-.5.4-3,2.3-.8.6-2.1,1.6-1.6,1.3-3.5,2.6c-.6.4-1.1.9-1.6,1.4l.6-.4c.3-.3.7-.6,1.1-.9l2.7-2.1.8-.6,3.2-2.5.5-.4,3.4-2.6.4-.3,3.5-2.7.3-.2,3.6-2.7.2-.2,3.6-2.8.2-.2,3.7-2.8h.2c0-.1,3.7-2.9,3.7-2.9h.1c0-.1,3.7-2.9,3.7-2.9h.1c0,0,3.7-2.9,3.7-2.9h.1c0,0,36.3-27.8,36.3-27.8,1.8-1.4,3.9-2.2,5.9-2.4h.1c.1,0,.3,0,.4,0h.1s.2,0,.2,0h.1s.3,0,.3,0c.3,0,.6,0,.9,0h.1c.6,0,1.1.2,1.7.3h.2c.2.1.4.2.7.2h.1c.9.4,1.8.8,2.7,1.3h.2c.4.4.8.7,1.1,1,.9.8,1.7,1.6,2.3,2.7h.2c-.7-1-1.5-1.9-2.5-2.7-.4-.4-.9-.7-1.3-1h-.2c-.8-.6-1.7-1-2.6-1.3h-.1c-.2-.1-.5-.2-.7-.2h-.2c-.5-.2-1.1-.3-1.6-.3h-.1c-.3,0-.6,0-.9,0" fill="#b9b8b9"/>
    <path d="M174.6,158.9v1.3c0,0,.5,3.1.5,3.1v.2s.6,4.4.6,4.4v.2s0-.9,0-.9l-.5-3.9v-.2s-.6-4.2-.6-4.2ZM173.4,149.7l.2,2.5.4,2.8v.2s.5,3.8.5,3.8v-1.3c0,0-.4-2.7-.4-2.7v-.2s-.7-5.1-.7-5.1M66.4,127.4h-.2c-.9,2-1.4,4-1.4,6h0c0,5.1,2.9,10.1,8.2,12.2l65.5,26.8h.3l-65.8-26.9c-5.3-2.2-8.2-7.1-8.2-12.1s.5-4.1,1.4-6" fill="#b9b8b9"/>
    <path d="M175.7,171.1c0,.4-.1.9-.2,1.3h.1c0-.2,0-.3.1-.5v-.8Z" fill="#b9b8b9"/>
    <path d="M63.9,127.9l-.4.2c-.3.4-.7.8-1,1.2h.2c.3-.6.7-1,1.1-1.5M166.7,76c0,.1,0,.2.1.3h0c.3,1.1.5,2,.6,3.1v1.2c0,0,.1.2.1.2l.3,4.1h0c0,.1.4,5.5.4,5.5v.3s.3,3.7.3,3.7h0c0,.1.5,5.8.5,5.8v.3s.4,4,.4,4h0c0,.1.4,5.4.4,5.4v.4s.4,4.7.4,4.7h0c0,.1.4,4.6.4,4.6v.5s.5,5.3.5,5.3h0c0,.1.3,3.8.3,3.8v.7c0,0,.5,5.6.5,5.6h0c0,.1.2,3.1.2,3.1v1.2c0,0,.6,5.7.6,5.7v.2s.1,1.5.1,1.5l.2,2.5.5,5.6v.2s.8,9.2.8,9.2v.2s.4,4.6.4,4.6v-2.8c-.1,0-.3-2-.3-2v-.2s-.8-9.1-.8-9.1v-.2s-.3-3-.3-3l-.2-2.5-.3-4.1v-.2s-.4-4.5-.4-4.5v-1.2c0,0-.4-4.1-.4-4.1h0c0-.1-.4-5-.4-5v-.7c0,0-.4-4.5-.4-4.5h0c0-.1-.4-4.9-.4-4.9v-.5s-.5-5-.5-5h0c0-.1-.4-4.4-.4-4.4v-.4s-.5-5.7-.5-5.7h0c0-.1-.3-3.8-.3-3.8v-.3s-.5-6-.5-6h0c0-.1-.3-3.6-.3-3.6v-.3s-.5-5.6-.5-5.6h0c0-.1-.3-4-.3-4v-.2s-.1-1.4-.1-1.4c0-1.1-.3-2.1-.6-3h0c0-.1,0-.3,0-.3h-.1M165.5,73.5c.5.7.8,1.5,1.2,2.3h.2c-.3-.7-.6-1.4-1.1-2.1l-.2-.2M154.7,67.5c-.4,0-.8,0-1.1,0h-.1s0,0,0,0h-.1c-.3,0-.7.1-1,.2h-.1s0,0,0,0h-.1c-1.6.4-3.1,1-4.5,2l-39.2,27h-.1c0,0-4.1,2.9-4.1,2.9h-.1c0,0-4,2.9-4,2.9h-.1c0,0-4,2.8-4,2.8h-.1c0,0-4,2.8-4,2.8h-.1c0,0-3.9,2.8-3.9,2.8h-.2c0,.1-3.8,2.8-3.8,2.8h-.2c0,.1-3.8,2.7-3.8,2.7h-.2c0,.1-3.6,2.6-3.6,2.6l-.3.2-3.4,2.4-.3.2-3,2.1-.6.4-2.2,1.5c-.9.6-1.7,1.3-2.4,2l.4-.3c.6-.6,1.3-1.2,2-1.7l1.8-1.2.4-.3,3.2-2.2.3-.2,3.5-2.4.2-.2,3.7-2.5h.2c0-.1,3.8-2.8,3.8-2.8h.2c0-.1,3.9-2.8,3.9-2.8h.2c0-.1,3.9-2.8,3.9-2.8h.1c0,0,4-2.8,4-2.8h.1c0,0,4-2.9,4-2.9h.1c0,0,4-2.9,4-2.9h.1c0,0,4.1-2.9,4.1-2.9h.1c0,0,39.2-27.1,39.2-27.1,1.4-1,3-1.6,4.5-2h.1s0,0,0,0h.1c.3,0,.7-.1,1-.2h.1s.1,0,.1,0c.4,0,.7,0,1.1,0s.7,0,1.1,0h.1c.4,0,.8.1,1.1.2h.2c.6.1,1.1.3,1.6.5h.1c.9.4,1.8.8,2.6,1.3l.2.2c.5.3.9.7,1.4,1.1.8.7,1.5,1.5,2.1,2.4l.2.2c-.6-1-1.4-1.9-2.3-2.7-.5-.4-1-.8-1.6-1.2h-.2c-.8-.6-1.6-1-2.5-1.3h-.1c-.6-.2-1.1-.4-1.7-.5h-.2c-.3,0-.7-.1-1-.2h-.1c-.3,0-.7,0-1,0" fill="#b9b8b9"/>
    <path d="M62.7,129.5h-.2c-1.5,2.5-2.3,5.1-2.3,7.8h0c0,5.1,2.8,10.2,8.1,12.7l47.9,22.4h.3l-48.2-22.5c-5.3-2.5-8-7.5-8-12.6,0-2.7.8-5.5,2.4-7.8" fill="#b9b8b9"/>
    <polygon points="175 169.4 175.1 172.1 175.1 172.4 175.3 172.4 175 169.4" fill="#b9b8b9"/>
    <path d="M158.1,71.2c-.4,0-.9,0-1.3,0h-.1c-.3,0-.5,0-.8.1h-.1c-.3,0-.6.1-.9.2h-.1c-.2,0-.4.1-.5.2h-.1s-.1,0-.1,0h-.1c-1,.4-2,.8-2.9,1.4l-41.4,25.9h-.1c0,0-4.5,2.9-4.5,2.9h-.1c0,0-4.4,2.8-4.4,2.8h-.1c0,0-4.3,2.8-4.3,2.8h-.1c0,0-4.3,2.7-4.3,2.7h-.1c0,0-4.2,2.7-4.2,2.7h-.1c0,0-4.1,2.6-4.1,2.6h-.1c0,0-4,2.6-4,2.6h-.2c0,0-3.9,2.5-3.9,2.5h-.2c0,.1-3.7,2.4-3.7,2.4h-.2c0,.1-3.4,2.3-3.4,2.3l-.3.2-2.9,1.8-.4.3-1.4.9c-1.2.7-2.2,1.6-3.1,2.5l.4-.2c.8-.8,1.7-1.5,2.7-2.2l1-.6.4-.2,3.1-1.9.3-.2,3.5-2.2h.2c0-.1,3.7-2.5,3.7-2.5h.2c0-.1,3.9-2.6,3.9-2.6h.2c0,0,4-2.6,4-2.6h.1c0,0,4.1-2.7,4.1-2.7h.1c0,0,4.2-2.7,4.2-2.7h.1c0,0,4.3-2.8,4.3-2.8h.1c0,0,4.4-2.8,4.4-2.8h.1c0,0,4.4-2.8,4.4-2.8h.1c0,0,4.5-2.9,4.5-2.9h.1c0,0,41.4-26,41.4-26,.9-.6,1.9-1,2.9-1.4h.1s.1,0,.1,0h.1c.2,0,.3-.1.5-.2h.1c.3-.1.6-.2.9-.2h.1c.2,0,.5,0,.7-.1h.1c.4,0,.8,0,1.3,0s.9,0,1.4,0h.1c.1,0,.2,0,.3,0h.2c.9.2,1.8.4,2.6.7h.1c.9.4,1.8.8,2.6,1.4l.2.2c.6.4,1.1.8,1.6,1.3.2.2.5.5.7.7h0c.4.5.8,1,1.1,1.5l.3.2c-.4-.6-.8-1.1-1.3-1.6h0c-.2-.3-.5-.6-.7-.8-.6-.5-1.2-1-1.8-1.4l-.2-.2c-.8-.5-1.6-.9-2.5-1.2h-.1c-.9-.4-1.8-.6-2.7-.7h-.2s-.3,0-.3,0h-.1c-.4,0-.9,0-1.4,0" fill="#b9b8b9"/>
    <path d="M169.3,77.4c1.1,1.7,1.9,3.8,2.2,6h0c0,.4,0,.7,0,.9v1.3c0,0,0,.2,0,.2l.3,7.6h0c0,.1,0,2.6,0,2.6v.2s.3,7.5.3,7.5h0c0,.1,0,2.6,0,2.6v.3s.3,7.4.3,7.4h0c0,.1.1,2.7.1,2.7v.3s.3,7.2.3,7.2h0c0,.1.1,2.8.1,2.8v.4s.3,6.9.3,6.9v.2s.1,2.8.1,2.8v.6s.3,6.4.3,6.4v.2s.1,3,.1,3v.8s.3,5.9.3,5.9v.2s.1,3,.1,3v1.3c0,0,.3,5.3.3,5.3v.2s0,2.2,0,2.2v2.8c.1,0,.2,3,.2,3h.1v-.3s-.1-2.8-.1-2.8l-.2-5.1v-.3s-.2-3.8-.2-3.8v-1.3c0,0-.2-4.5-.2-4.5v-.2s-.2-4.9-.2-4.9v-.8s-.2-3.9-.2-3.9v-.2s-.2-5.7-.2-5.7v-.6s-.2-3.5-.2-3.5v-.2s-.3-6.3-.3-6.3v-.4s-.1-3.2-.1-3.2h0c0-.1-.3-6.9-.3-6.9v-.3s-.1-2.9-.1-2.9h0c0-.1-.3-7.2-.3-7.2v-.3s-.1-2.8-.1-2.8h0c0-.1-.3-7.4-.3-7.4v-.2s-.1-2.7-.1-2.7h0c0-.1-.3-7.6-.3-7.6v-.2s0-1.5,0-1.5c0-.3,0-.6,0-.9h0c-.2-2.3-.9-4.3-2-5.9l-.3-.2Z" fill="#b9b8b9"/>
    <path d="M59.5,131.3l-.3.2c-2.5,2.8-3.7,6.3-3.7,9.7h0c0,5.2,2.7,10.4,8,13.1l34.5,18h.3l-34.7-18.1c-5.3-2.7-7.9-7.9-7.9-13,0-3.6,1.3-7.1,3.9-9.9" fill="#b9b8b9"/>
    <path d="M161.5,74.9c-.4,0-.8,0-1.2,0h-.1c-.6,0-1.2.2-1.7.3h-.1c-.1,0-.3.1-.5.1h-.1c-.5.2-.9.3-1.3.5h0s-.1,0-.1,0c-.1,0-.3.1-.4.2h-.1c-.4.2-.8.4-1.2.7l-42.7,24.4h-.1c0,0-5,2.9-5,2.9h-.1c0,0-4.9,2.8-4.9,2.8h-.1c0,0-4.7,2.8-4.7,2.8h-.1c0,0-4.6,2.7-4.6,2.7h-.1c0,0-4.5,2.6-4.5,2.6h-.1c0,0-4.4,2.6-4.4,2.6h-.1c0,0-4.2,2.5-4.2,2.5h-.1c0,0-4.1,2.4-4.1,2.4h-.1c0,0-3.9,2.3-3.9,2.3h-.2c0,0-3.7,2.2-3.7,2.2h-.2c0,.1-3.4,2.1-3.4,2.1h-.2c0,.1-2.8,1.8-2.8,1.8l-.4.2-.7.4c-5.3,3-7.9,8.3-7.9,13.6h0c0,5.3,2.6,10.6,7.9,13.6l23.8,13.6h.2l-24-13.7c-5.2-3-7.8-8.2-7.8-13.5s2.6-10.5,7.8-13.5l.4-.2.3-.2,3-1.7h.2c0-.1,3.5-2.1,3.5-2.1h.2c0-.1,3.8-2.3,3.8-2.3h.2c0,0,4-2.4,4-2.4h.1c0,0,4.1-2.4,4.1-2.4h.1c0,0,4.3-2.5,4.3-2.5h.1c0,0,4.4-2.6,4.4-2.6h.1c0,0,4.5-2.7,4.5-2.7h.1c0,0,4.6-2.7,4.6-2.7h.1c0,0,4.8-2.8,4.8-2.8h.1c0,0,4.9-2.9,4.9-2.9h.1c0,0,5-2.9,5-2.9h.1c0,0,42.6-24.5,42.6-24.5.4-.2.8-.4,1.2-.6h.1c.1-.1.3-.2.4-.2h.1s0,0,0,0c.4-.2.9-.3,1.3-.4h.1c.2,0,.3-.1.5-.2h.1c.6-.2,1.1-.2,1.7-.3h.1c.4,0,.8,0,1.2,0s.9,0,1.4,0h.2c.1,0,.2,0,.3,0h.1c1.1.2,2.2.5,3.2.9h.1c0,0,.3.2.3.2h.1c.7.4,1.5.8,2.1,1.2l.3.2c.6.4,1.2.9,1.8,1.5,1,1,1.9,2.1,2.6,3.4h0c1.1,2.1,1.7,4.4,1.7,6.9v83.1h.1v-83.1c0-2.5-.6-4.8-1.7-6.8h0c-.7-1.4-1.6-2.5-2.6-3.5-.6-.6-1.3-1.2-2-1.6l-.3-.2c-.6-.4-1.2-.7-1.8-1h-.1c-.1-.1-.3-.2-.4-.2h-.2c-1-.4-2.1-.7-3.1-.9h-.1c-.1,0-.3,0-.4,0h-.2c-.4,0-.8,0-1.3,0" fill="#b9b8b9"/>
  </g>
</svg>